<svg width="12" height="12" viewBox="0 0 12 12" fill="none" xmlns="http://www.w3.org/2000/svg">
<path d="M6 10L6.075 9.9995C6.249 10.3385 6.4595 10.658 6.703 10.9515C6.1345 11.03 5.55687 11.013 4.994 10.901C4.8982 10.8813 4.7988 10.8888 4.707 10.9225L3.345 11.4335C3.25043 11.4691 3.14864 11.4812 3.04837 11.4688C2.94809 11.4564 2.85232 11.4199 2.76924 11.3624C2.68617 11.3049 2.61828 11.2281 2.57139 11.1386C2.5245 11.0491 2.5 10.9495 2.5 10.8485V9.9085C2.5 9.7635 2.436 9.626 2.33 9.5265C1.368 8.6225 0.75 7.3765 0.75 6C0.75 3.2385 3.2385 1 6 1C8.5765 1 10.9155 2.959 11.217 5.455C10.8691 5.30798 10.5075 5.19593 10.1375 5.1205C9.689 3.3765 7.9525 2 6 2C3.727 2 1.75 3.8525 1.75 6C1.75 7.067 2.2285 8.059 3.015 8.798C3.305 9.071 3.5 9.465 3.5 9.9085V10.307L4.356 9.986C4.62181 9.88709 4.90992 9.86423 5.188 9.92C5.45541 9.97308 5.72737 9.99988 6 10Z" fill="black"/>
<path fill-rule="evenodd" clip-rule="evenodd" d="M6.5 6.9479C6.5 6.8064 6.5765 6.6759 6.7 6.6064C7.40242 6.21202 8.19444 6.00488 9 6.00488C9.80556 6.00488 10.5976 6.21202 11.3 6.6064C11.4235 6.6759 11.5 6.8064 11.5 6.9479V7.6159C11.5 8.36568 11.3004 9.10194 10.9216 9.74904C10.5429 10.3961 9.99873 10.9307 9.345 11.2979C9.1305 11.4179 8.8695 11.4179 8.655 11.2979C8.00127 10.9307 7.45709 10.3961 7.07835 9.74904C6.69962 9.10194 6.5 8.36568 6.5 7.6159V6.9479ZM9.187 7.1519C9.17261 7.11395 9.14701 7.08128 9.11361 7.05823C9.08021 7.03517 9.04058 7.02283 9 7.02283C8.95942 7.02283 8.91979 7.03517 8.88639 7.05823C8.85299 7.08128 8.82739 7.11395 8.813 7.1519L8.528 7.9099L7.736 7.9604C7.69636 7.96291 7.65836 7.97718 7.62685 8.00138C7.59535 8.02558 7.57176 8.05861 7.55911 8.09626C7.54645 8.13392 7.54529 8.17449 7.55578 8.2128C7.56627 8.25112 7.58793 8.28544 7.618 8.3114L8.239 8.8509L8.0405 9.6524C8.03085 9.69157 8.03327 9.73275 8.04745 9.77052C8.06163 9.80829 8.0869 9.84089 8.11995 9.86404C8.15299 9.88719 8.19227 9.8998 8.23261 9.90022C8.27295 9.90064 8.31248 9.88885 8.346 9.8664L9 9.4289L9.654 9.8664C9.68752 9.88868 9.72698 9.90032 9.76723 9.89981C9.80747 9.89931 9.84663 9.88667 9.87958 9.86355C9.91253 9.84043 9.93773 9.80791 9.9519 9.77024C9.96607 9.73257 9.96855 9.6915 9.959 9.6524L9.761 8.8509L10.382 8.3109C10.4117 8.28487 10.4331 8.25062 10.4434 8.21246C10.4536 8.17431 10.4524 8.13397 10.4398 8.09653C10.4271 8.05909 10.4037 8.02622 10.3724 8.00208C10.3412 7.97794 10.3034 7.96361 10.264 7.9609L9.472 7.9099L9.187 7.1519Z" fill="black"/>
</svg>
