<svg width="12" height="12" viewBox="0 0 12 12" fill="none" xmlns="http://www.w3.org/2000/svg">
<path d="M8.31972 4.88387C8.37194 4.84243 8.41536 4.79096 8.4474 4.7325C8.47944 4.67403 8.49947 4.60975 8.5063 4.54343C8.51313 4.47711 8.50663 4.41009 8.48718 4.34632C8.46773 4.28255 8.43573 4.22331 8.39304 4.1721C8.35036 4.12088 8.29787 4.07871 8.23865 4.04808C8.17943 4.01745 8.11469 3.99897 8.04822 3.99373C7.98176 3.98849 7.91492 3.9966 7.85163 4.01758C7.78835 4.03855 7.72989 4.07197 7.67972 4.11587L7.64622 4.14337C6.77641 4.86827 5.96522 5.66073 5.22022 6.51337L4.35322 5.64637C4.25891 5.55529 4.13261 5.50489 4.00151 5.50603C3.87042 5.50717 3.74501 5.55976 3.65231 5.65246C3.5596 5.74516 3.50702 5.87057 3.50588 6.00167C3.50474 6.13277 3.55514 6.25907 3.64622 6.35337L4.89622 7.60337C4.94534 7.65247 5.00416 7.69079 5.06892 7.7159C5.13368 7.74101 5.20296 7.75235 5.27235 7.74919C5.34174 7.74604 5.4097 7.72847 5.47192 7.69759C5.53414 7.66672 5.58924 7.62322 5.63372 7.56987L5.66172 7.53637C6.45552 6.58378 7.33412 5.70518 8.28672 4.91137L8.31972 4.88387Z" fill="black"/>
<path fill-rule="evenodd" clip-rule="evenodd" d="M1.5 2.91797C1.5 2.66047 1.64 2.42297 1.865 2.29797C3.12991 1.5953 4.55302 1.22656 6 1.22656C7.44698 1.22656 8.87009 1.5953 10.135 2.29797C10.36 2.42297 10.5 2.66047 10.5 2.91797V4.96997C10.5 6.03998 10.2139 7.09053 9.6713 8.01275C9.12869 8.93497 8.34934 9.69531 7.414 10.215L6.485 10.7305C6.33648 10.813 6.16939 10.8562 5.9995 10.8562C5.82961 10.8562 5.66252 10.813 5.514 10.7305L4.586 10.2155C3.65059 9.69577 2.87118 8.93535 2.32857 8.01303C1.78596 7.09072 1.49989 6.04007 1.5 4.96997V2.91797ZM2.5 3.09097C3.57921 2.52299 4.78045 2.22618 6 2.22618C7.21955 2.22618 8.42079 2.52299 9.5 3.09097V4.97047C9.50002 5.86221 9.26155 6.73772 8.80932 7.50627C8.35708 8.27483 7.70754 8.90845 6.928 9.34147L6 9.85647L5.072 9.34097C4.29246 8.90795 3.64292 8.27432 3.19068 7.50577C2.73845 6.73722 2.49998 5.86171 2.5 4.96997V3.09097Z" fill="black"/>
</svg>
