<svg width="12" height="12" viewBox="0 0 12 12" fill="none" xmlns="http://www.w3.org/2000/svg">
<path fill-rule="evenodd" clip-rule="evenodd" d="M6 7C6.53043 7 7.03914 6.78929 7.41421 6.41421C7.78929 6.03914 8 5.53043 8 5C8 4.46957 7.78929 3.96086 7.41421 3.58579C7.03914 3.21071 6.53043 3 6 3C5.46957 3 4.96086 3.21071 4.58579 3.58579C4.21071 3.96086 4 4.46957 4 5C4 5.53043 4.21071 6.03914 4.58579 6.41421C4.96086 6.78929 5.46957 7 6 7ZM6 6C6.26522 6 6.51957 5.89464 6.70711 5.70711C6.89464 5.51957 7 5.26522 7 5C7 4.73478 6.89464 4.48043 6.70711 4.29289C6.51957 4.10536 6.26522 4 6 4C5.73478 4 5.48043 4.10536 5.29289 4.29289C5.10536 4.48043 5 4.73478 5 5C5 5.26522 5.10536 5.51957 5.29289 5.70711C5.48043 5.89464 5.73478 6 6 6Z" fill="black"/>
<path fill-rule="evenodd" clip-rule="evenodd" d="M4.586 10.2155C3.94047 9.85675 3.36669 9.38197 2.8935 8.81497C1.99297 7.73609 1.4998 6.3753 1.5 4.96997V2.91797C1.5 2.66047 1.64 2.42297 1.865 2.29797C3.12991 1.5953 4.55302 1.22656 6 1.22656C7.44698 1.22656 8.87009 1.5953 10.135 2.29797C10.36 2.42297 10.5 2.66047 10.5 2.91797V4.97047C10.5 6.04048 10.2139 7.09103 9.6713 8.01325C9.12869 8.93547 8.34934 9.69581 7.414 10.2155L6.4855 10.7315C6.33698 10.814 6.16989 10.8572 6 10.8572C5.83011 10.8572 5.66302 10.814 5.5145 10.7315L4.586 10.2155ZM9.5 3.09047C8.42079 2.52249 7.21955 2.22568 6 2.22568C4.78045 2.22568 3.57921 2.52249 2.5 3.09047V4.97047C2.5 6.14047 2.9085 7.25147 3.624 8.12947C4.277 7.70997 5.1385 7.50047 6 7.50047C6.8615 7.50047 7.723 7.70997 8.376 8.12897C9.10317 7.23677 9.50018 6.12097 9.5 4.96997V3.09097V3.09047ZM6 8.50047C5.378 8.50047 4.798 8.63398 4.3575 8.85948C4.579 9.03848 4.8175 9.19947 5.072 9.34097L6 9.85647L6.928 9.34097C7.17958 9.20134 7.41864 9.04024 7.6425 8.85948C7.2025 8.63398 6.6225 8.50047 6 8.50047Z" fill="black"/>
</svg>